<svg width="22" height="17" viewBox="0 0 22 17" fill="none" xmlns="http://www.w3.org/2000/svg">
<path d="M0 1.0625C0 0.475697 0.475697 0 1.0625 0H20.9375C21.5243 0 22 0.475697 22 1.0625C22 1.6493 21.5243 2.125 20.9375 2.125H1.0625C0.475697 2.125 0 1.6493 0 1.0625Z" fill="#211D56"/>
<path d="M0 8.5C0 7.9132 0.475697 7.4375 1.0625 7.4375H9.45924C10.046 7.4375 10.5217 7.9132 10.5217 8.5C10.5217 9.0868 10.046 9.5625 9.45924 9.5625H1.0625C0.475699 9.5625 0 9.0868 0 8.5Z" fill="#211D56"/>
<path d="M0 15.9375C0 15.3507 0.475698 14.875 1.0625 14.875H16.1549C16.7417 14.875 17.2174 15.3507 17.2174 15.9375C17.2174 16.5243 16.7417 17 16.1549 17H1.0625C0.475696 17 0 16.5243 0 15.9375Z" fill="#211D56"/>
</svg>
