<svg width="24" height="24" viewBox="0 0 24 24" fill="none" xmlns="http://www.w3.org/2000/svg">
<path fill-rule="evenodd" clip-rule="evenodd" d="M19.3417 10.5196C19.3417 15.198 15.4866 19.0391 10.6708 19.0391C5.85504 19.0391 2 15.198 2 10.5196C2 5.84116 5.85504 2 10.6708 2C15.4866 2 19.3417 5.84116 19.3417 10.5196ZM17.4948 18.6073C15.645 20.1257 13.2661 21.0391 10.6708 21.0391C4.77749 21.0391 0 16.3294 0 10.5196C0 4.70977 4.77749 0 10.6708 0C16.5642 0 21.3417 4.70977 21.3417 10.5196C21.3417 13.0119 20.4625 15.3018 18.9931 17.1043L23.722 22.2399C24.1187 22.6707 24.0865 23.3364 23.6501 23.7269C23.2138 24.1174 22.5385 24.0848 22.1418 23.654L17.4948 18.6073Z" fill="#211D56"/>
</svg>
