<svg width="33" height="40" viewBox="0 0 33 40" fill="none" xmlns="http://www.w3.org/2000/svg">
<path d="M31.9 32V25.3333C31.8879 12.0846 23.0302 1.34803 12.1 1.33333H6.6C6.6 0.596954 6.10751 0 5.5 0H1.1C0.808262 0 0.528473 0.140476 0.322183 0.390524C0.115893 0.640573 0 0.979711 0 1.33333V20C0 20.7364 0.492487 21.3333 1.1 21.3333H5.5C6.10751 21.3333 6.6 20.7364 6.6 20H12.1C14.5289 20.0033 16.4973 22.3892 16.5 25.3333V32C15.8925 32 15.4 32.597 15.4 33.3333V38.6667C15.4 39.403 15.8925 40 16.5 40H31.9C32.5075 40 33 39.403 33 38.6667V33.3333C33 32.597 32.5075 32 31.9 32ZM5.5 20H1.1V1.33333H5.5V20ZM12.1 18.6667H6.6V2.66667H12.1C22.423 2.68063 30.7885 12.8207 30.8 25.3333V32H17.6V25.3333C17.5967 21.6531 15.1362 18.6707 12.1 18.6667ZM31.9 38.6667H16.5V33.3333H31.9V38.6667Z" fill="#211D56"/>
</svg>
