<svg width="40" height="32" viewBox="0 0 40 32" fill="none" xmlns="http://www.w3.org/2000/svg">
<path d="M39.3333 28.5205V24.0005C39.3249 16.6402 33.3603 10.6756 26 10.6672H22.544C22.2625 9.87094 21.5112 9.33734 20.6667 9.33384H18.6667V6.66718H19.3333C19.8075 6.66575 20.2451 6.41168 20.4813 6.00051H26C27.0855 6.01723 27.9799 5.15261 28 4.06717V1.93384C27.9991 1.34299 27.7231 0.786256 27.2533 0.427842C26.7503 0.0382284 26.0946 -0.0950828 25.4793 0.0671748L20.09 1.46317C19.4702 0.549033 18.4378 0.00125956 17.3333 0.000508099H14.6667C13.5622 0.00125956 12.5298 0.549033 11.91 1.46317L6.51933 0.0671748C5.90473 -0.0957519 5.24931 0.0371077 4.74667 0.426508C4.27656 0.785207 4.00049 1.34252 4 1.93384V4.06717C4.02008 5.15261 4.91451 6.01723 6 6.00051H11.5187C11.7549 6.41168 12.1924 6.66575 12.6667 6.66718H13.3333V9.33384H11.3333C10.4888 9.33734 9.7375 9.87094 9.456 10.6672H1.33333C0.596954 10.6672 0 11.2641 0 12.0005V21.3338C0 22.0702 0.596954 22.6672 1.33333 22.6672H9.456C9.7375 23.4634 10.4888 23.997 11.3333 24.0005H20.6667C21.5112 23.997 22.2625 23.4634 22.544 22.6672H27.3333V28.5205C26.7152 29.0716 26.5024 29.9475 26.7987 30.7208C27.0949 31.4941 27.8386 32.0035 28.6667 32.0005H38C38.8281 32.0035 39.5717 31.4941 39.868 30.7208C40.1643 29.9475 39.9514 29.0716 39.3333 28.5205ZM5.33333 4.06717V1.93384C5.33532 1.7554 5.42067 1.58815 5.564 1.48184C5.74099 1.34648 5.97087 1.30115 6.186 1.35918L11.4 2.70784C11.3581 2.91395 11.3358 3.12354 11.3333 3.33384V4.66718H6C5.65071 4.68421 5.35306 4.41633 5.33333 4.06717ZM25.8127 1.35918C26.0282 1.3006 26.2587 1.34597 26.436 1.48184C26.5793 1.58815 26.6647 1.7554 26.6667 1.93384V4.06717C26.6469 4.41633 26.3493 4.68421 26 4.66718H20.6667V3.33384C20.6653 3.12365 20.6441 2.91405 20.6033 2.70784L25.8127 1.35918ZM12.6667 3.33384C12.6667 2.22927 13.5621 1.33384 14.6667 1.33384H17.3333C18.4379 1.33384 19.3333 2.22927 19.3333 3.33384V5.33384H12.6667V3.33384ZM14.6667 6.66718H17.3333V9.33384H14.6667V6.66718ZM1.33333 12.0005H9.33333V21.3338H1.33333V12.0005ZM20.6667 22.6672H11.3333C10.9651 22.6672 10.6667 22.3687 10.6667 22.0005V11.3338C10.6667 10.9657 10.9651 10.6672 11.3333 10.6672H20.6667C21.0349 10.6672 21.3333 10.9657 21.3333 11.3338V22.0005C21.3333 22.3687 21.0349 22.6672 20.6667 22.6672ZM27.3333 21.3338H22.6667V12.0005H26C32.6242 12.0082 37.9923 17.3763 38 24.0005V28.0005H28.6667V22.6672C28.6667 21.9308 28.0697 21.3338 27.3333 21.3338ZM38 30.6672H28.6667C28.2985 30.6672 28 30.3687 28 30.0005C28 29.6323 28.2985 29.3338 28.6667 29.3338H38C38.3682 29.3338 38.6667 29.6323 38.6667 30.0005C38.6667 30.3687 38.3682 30.6672 38 30.6672Z" fill="#1A1745"/>
</svg>
