<svg width="52" height="42" viewBox="0 0 52 42" fill="none" xmlns="http://www.w3.org/2000/svg">
<path d="M50.6106 36.7583V31.03C50.5999 21.7021 43.0408 14.143 33.7129 14.1323H29.3331C28.9763 13.1233 28.0241 12.447 26.9539 12.4426H24.4192V9.06303H25.2641C25.8651 9.06122 26.4195 8.73923 26.719 8.21815H33.7129C35.0886 8.23933 36.2221 7.14358 36.2476 5.76798V3.06435C36.2464 2.31554 35.8966 1.60999 35.3013 1.15576C34.6638 0.66199 33.8328 0.493041 33.0531 0.698675L26.223 2.46786C25.4375 1.30935 24.1292 0.615139 22.7294 0.614186H19.3499C17.9502 0.615139 16.6418 1.30935 15.8563 2.46786L9.02457 0.698675C8.24567 0.492193 7.41504 0.66057 6.77803 1.15407C6.18225 1.60866 5.83238 2.31495 5.83176 3.06435V5.76798C5.8572 7.14358 6.99074 8.23933 8.36641 8.21815H15.3604C15.6598 8.73923 16.2143 9.06122 16.8153 9.06303H17.6601V12.4426H15.1255C14.0552 12.447 13.103 13.1233 12.7463 14.1323H2.45222C1.51899 14.1323 0.762451 14.8889 0.762451 15.8221V27.6505C0.762451 28.5837 1.51899 29.3403 2.45222 29.3403H12.7463C13.103 30.3494 14.0552 31.0256 15.1255 31.03H26.9539C28.0241 31.0256 28.9763 30.3494 29.3331 29.3403H35.4027V36.7583C34.6194 37.4568 34.3496 38.5668 34.7251 39.5468C35.1006 40.5268 36.043 41.1725 37.0925 41.1686H48.9208C49.9703 41.1725 50.9127 40.5268 51.2882 39.5468C51.6637 38.5668 51.3939 37.4568 50.6106 36.7583ZM7.52152 5.76798V3.06435C7.52404 2.8382 7.6322 2.62625 7.81385 2.49152C8.03816 2.31998 8.32949 2.26252 8.60213 2.33606L15.21 4.04526C15.1569 4.30647 15.1286 4.57209 15.1255 4.83861V6.52838H8.36641C7.92374 6.54997 7.54652 6.21047 7.52152 5.76798ZM33.4755 2.33606C33.7487 2.26183 34.0408 2.31932 34.2655 2.49152C34.4471 2.62625 34.5553 2.8382 34.5578 3.06435V5.76798C34.5328 6.21047 34.1556 6.54997 33.7129 6.52838H26.9539V4.83861C26.9521 4.57223 26.9252 4.3066 26.8736 4.04526L33.4755 2.33606ZM16.8153 4.83861C16.8153 3.43876 17.9501 2.30396 19.3499 2.30396H22.7294C24.1293 2.30396 25.2641 3.43876 25.2641 4.83861V7.37326H16.8153V4.83861ZM19.3499 9.06303H22.7294V12.4426H19.3499V9.06303ZM2.45222 15.8221H12.5908V27.6505H2.45222V15.8221ZM26.9539 29.3403H15.1255C14.6589 29.3403 14.2806 28.962 14.2806 28.4954V14.9772C14.2806 14.5106 14.6589 14.1323 15.1255 14.1323H26.9539C27.4205 14.1323 27.7987 14.5106 27.7987 14.9772V28.4954C27.7987 28.962 27.4205 29.3403 26.9539 29.3403ZM35.4027 27.6505H29.4885V15.8221H33.7129C42.108 15.8319 48.9111 22.635 48.9208 31.03V36.0993H37.0925V29.3403C37.0925 28.407 36.3359 27.6505 35.4027 27.6505ZM48.9208 39.4789H37.0925C36.6259 39.4789 36.2476 39.1006 36.2476 38.634C36.2476 38.1674 36.6259 37.7891 37.0925 37.7891H48.9208C49.3875 37.7891 49.7657 38.1674 49.7657 38.634C49.7657 39.1006 49.3875 39.4789 48.9208 39.4789Z" fill="#1A1745"/>
</svg>
