<svg width="49" height="52" viewBox="0 0 49 52" fill="none" xmlns="http://www.w3.org/2000/svg">
<path d="M16.8942 14.0638H13.5146C12.1148 14.0638 10.98 15.1986 10.98 16.5985V19.1331H3.37602C2.13574 19.13 1.07639 20.0272 0.87525 21.251C0.674106 22.4749 1.39058 23.6639 2.56662 24.0579C2.94233 31.7008 9.24211 37.7082 16.8942 37.7206H19.4288V40.2552C19.4333 41.3255 20.1095 42.2777 21.1186 42.6344V47.8592C21.1186 49.7256 22.6317 51.2387 24.4981 51.2387C26.3646 51.2387 27.8777 49.7256 27.8777 47.8592V42.6344C28.8868 42.2777 29.563 41.3255 29.5674 40.2552V37.7206H32.1021C39.7542 37.7082 46.0539 31.7008 46.4297 24.0579C47.6057 23.6639 48.3222 22.4749 48.121 21.251C47.9199 20.0272 46.8605 19.13 45.6203 19.1331H38.0163V16.5985C38.0163 15.1986 36.8815 14.0638 35.4816 14.0638H32.1021C30.7023 14.0638 29.5674 15.1986 29.5674 16.5985V19.1331H27.0328V7.30472C27.0308 5.35811 26.1906 3.50665 24.7268 2.22341C23.2631 0.940176 21.3176 0.349479 19.3874 0.602255C15.9747 1.10724 13.4635 4.06138 13.5146 7.51088V8.14961C13.5146 9.08284 14.2712 9.83938 15.2044 9.83938H16.8942C17.8274 9.83938 18.5839 9.08284 18.5839 8.14961V7.30472C18.5835 6.79598 18.8122 6.31409 19.2067 5.99286C19.6012 5.67162 20.1195 5.54522 20.6176 5.64875C21.4224 5.8459 21.9821 6.57597 21.9635 7.40442V19.1331H19.4288V16.5985C19.4288 15.1986 18.294 14.0638 16.8942 14.0638ZM12.6698 16.5985C12.6698 16.1318 13.048 15.7536 13.5146 15.7536H16.8942C17.3608 15.7536 17.7391 16.1318 17.7391 16.5985V19.1331H12.6698V16.5985ZM26.1879 47.8592C26.1879 48.7924 25.4314 49.5489 24.4981 49.5489C23.5649 49.5489 22.8084 48.7924 22.8084 47.8592V42.7899H26.1879V47.8592ZM27.8777 40.2552C27.8777 40.7218 27.4994 41.1001 27.0328 41.1001H21.9635C21.4969 41.1001 21.1186 40.7218 21.1186 40.2552V37.7206H27.8777V40.2552ZM32.1021 36.0308H16.8942C10.2262 36.0222 4.70201 30.855 4.24879 24.2024H44.7475C44.2943 30.855 38.7701 36.0222 32.1021 36.0308ZM46.4651 21.6678C46.4651 22.1344 46.0869 22.5126 45.6203 22.5126H3.37602C2.9094 22.5126 2.53114 22.1344 2.53114 21.6678C2.53114 21.2011 2.9094 20.8229 3.37602 20.8229H45.6203C46.0869 20.8229 46.4651 21.2011 46.4651 21.6678ZM31.2572 16.5985C31.2572 16.1318 31.6355 15.7536 32.1021 15.7536H35.4816C35.9483 15.7536 36.3265 16.1318 36.3265 16.5985V19.1331H31.2572V16.5985ZM20.9403 3.99024C19.9468 3.79035 18.9161 4.04684 18.1321 4.68903C17.3482 5.33122 16.8938 6.29132 16.8942 7.30472V8.14961H15.2044V7.51088C15.1521 4.91094 17.0326 2.67392 19.6029 2.27851C21.0512 2.08766 22.5116 2.52996 23.6106 3.49233C24.7097 4.4547 25.341 5.84387 25.343 7.30472V19.1331H23.6533V7.40442C23.6798 5.7647 22.5436 4.33487 20.9403 3.99024Z" fill="#1A1745"/>
</svg>
