<svg width="52" height="52" viewBox="0 0 52 52" fill="none" xmlns="http://www.w3.org/2000/svg">
<path d="M47.9099 22.8798C48.3843 22.8798 48.7689 22.4952 48.7689 22.0208V1.40396C48.7689 0.929557 48.3843 0.544922 47.9099 0.544922C44.1927 0.544922 38.4605 3.49659 38.4605 7.41719V8.27622H20.4208C18.0497 8.27916 16.1286 10.2002 16.1257 12.5714V16.6648C15.2683 17.4257 14.6899 18.4512 14.4814 19.5787C9.28485 20.3581 5.33489 24.6553 4.9943 29.8989C3.79845 30.2994 3.07028 31.5083 3.27456 32.7528C3.47925 33.9973 4.5564 34.9096 5.81726 34.9063H31.5883C32.8491 34.9096 33.9263 33.9973 34.131 32.7528C34.3352 31.5083 33.6071 30.2994 32.4112 29.8989C32.0706 24.6553 28.1207 20.3581 22.9241 19.5787C22.7156 18.4512 22.1372 17.4257 21.2799 16.6648V13.4304H38.4605V16.0075C38.4605 19.9281 44.1927 22.8798 47.9099 22.8798ZM40.1786 7.41719C40.1786 4.92608 44.1403 2.71474 47.0509 2.32381V21.1009C44.1403 20.71 40.1786 18.4986 40.1786 16.0075V7.41719ZM21.1251 19.4437H16.2804C16.5707 18.5716 17.225 17.7256 17.8437 17.7256H19.5618C20.183 17.7256 20.8348 18.5716 21.1251 19.4437ZM31.5883 33.1882H5.81726C5.34286 33.1882 4.95823 32.8036 4.95823 32.3292C4.95823 31.8548 5.34286 31.4701 5.81726 31.4701H31.5883C32.0627 31.4701 32.4473 31.8548 32.4473 32.3292C32.4473 32.8036 32.0627 33.1882 31.5883 33.1882ZM30.6906 29.7521H6.71488C7.16495 24.889 11.242 21.1676 16.1257 21.1617H21.2799C26.1635 21.1676 30.2406 24.889 30.6906 29.7521ZM20.4208 11.7124C19.9464 11.7124 19.5618 12.097 19.5618 12.5714V16.0075H17.8437V12.5714C17.8437 11.1482 18.9976 9.99429 20.4208 9.99429H38.4605V11.7124H20.4208Z" fill="#211D56"/>
<path d="M7.53532 37.484C7.53532 37.0096 7.15069 36.625 6.67629 36.625C6.20189 36.625 5.81726 37.0096 5.81726 37.484V38.3431C5.81726 38.8175 6.20189 39.2021 6.67629 39.2021C7.15069 39.2021 7.53532 38.8175 7.53532 38.3431V37.484Z" fill="#211D56"/>
<path d="M10.9716 37.484C10.9716 37.0096 10.587 36.625 10.1126 36.625C9.63817 36.625 9.25354 37.0096 9.25354 37.484V42.6382C9.25354 43.1126 9.63817 43.4973 10.1126 43.4973C10.587 43.4973 10.9716 43.1126 10.9716 42.6382V37.484Z" fill="#211D56"/>
<path d="M14.4076 37.484C14.4076 37.0096 14.023 36.625 13.5486 36.625C13.0742 36.625 12.6896 37.0096 12.6896 37.484V38.3431C12.6896 38.8175 13.0742 39.2021 13.5486 39.2021C14.023 39.2021 14.4076 38.8175 14.4076 38.3431V37.484Z" fill="#211D56"/>
<path d="M17.8439 37.484C17.8439 37.0096 17.4593 36.625 16.9849 36.625C16.5105 36.625 16.1259 37.0096 16.1259 37.484V42.6382C16.1259 43.1126 16.5105 43.4973 16.9849 43.4973C17.4593 43.4973 17.8439 43.1126 17.8439 42.6382V37.484Z" fill="#211D56"/>
<path d="M21.2798 37.484C21.2798 37.0096 20.8952 36.625 20.4208 36.625C19.9464 36.625 19.5618 37.0096 19.5618 37.484V38.3431C19.5618 38.8175 19.9464 39.2021 20.4208 39.2021C20.8952 39.2021 21.2798 38.8175 21.2798 38.3431V37.484Z" fill="#1A1745"/>
<path d="M24.716 37.484C24.716 37.0096 24.3314 36.625 23.857 36.625C23.3826 36.625 22.9979 37.0096 22.9979 37.484V42.6382C22.9979 43.1126 23.3826 43.4973 23.857 43.4973C24.3314 43.4973 24.716 43.1126 24.716 42.6382V37.484Z" fill="#211D56"/>
<path d="M28.1523 37.484C28.1523 37.0096 27.7676 36.625 27.2932 36.625C26.8188 36.625 26.4342 37.0096 26.4342 37.484V38.3431C26.4342 38.8175 26.8188 39.2021 27.2932 39.2021C27.7676 39.2021 28.1523 38.8175 28.1523 38.3431V37.484Z" fill="#211D56"/>
<path d="M10.1126 45.2148C9.63817 45.2148 9.25354 45.5995 9.25354 46.0739V48.651C9.25354 49.1254 9.63817 49.51 10.1126 49.51C10.587 49.51 10.9716 49.1254 10.9716 48.651V46.0739C10.9716 45.5995 10.587 45.2148 10.1126 45.2148Z" fill="#211D56"/>
<path d="M16.9849 45.2148C16.5105 45.2148 16.1259 45.5995 16.1259 46.0739V48.651C16.1259 49.1254 16.5105 49.51 16.9849 49.51C17.4593 49.51 17.8439 49.1254 17.8439 48.651V46.0739C17.8439 45.5995 17.4593 45.2148 16.9849 45.2148Z" fill="#211D56"/>
<path d="M23.857 45.2148C23.3826 45.2148 22.9979 45.5995 22.9979 46.0739V48.651C22.9979 49.1254 23.3826 49.51 23.857 49.51C24.3314 49.51 24.716 49.1254 24.716 48.651V46.0739C24.716 45.5995 24.3314 45.2148 23.857 45.2148Z" fill="#211D56"/>
<path d="M30.7293 45.2148C30.2549 45.2148 29.8702 45.5995 29.8702 46.0739V48.651C29.8702 49.1254 30.2549 49.51 30.7293 49.51C31.2037 49.51 31.5883 49.1254 31.5883 48.651V46.0739C31.5883 45.5995 31.2037 45.2148 30.7293 45.2148Z" fill="#211D56"/>
<path d="M31.5883 37.484C31.5883 37.0096 31.2037 36.625 30.7293 36.625C30.2549 36.625 29.8702 37.0096 29.8702 37.484V42.6382C29.8702 43.1126 30.2549 43.4973 30.7293 43.4973C31.2037 43.4973 31.5883 43.1126 31.5883 42.6382V37.484Z" fill="#211D56"/>
<path d="M7.53532 41.779C7.53532 41.3046 7.15069 40.9199 6.67629 40.9199C6.20189 40.9199 5.81726 41.3046 5.81726 41.779V46.9332C5.81726 47.4076 6.20189 47.7922 6.67629 47.7922C7.15069 47.7922 7.53532 47.4076 7.53532 46.9332V41.779Z" fill="#211D56"/>
<path d="M14.4076 41.779C14.4076 41.3046 14.023 40.9199 13.5486 40.9199C13.0742 40.9199 12.6896 41.3046 12.6896 41.779V46.9332C12.6896 47.4076 13.0742 47.7922 13.5486 47.7922C14.023 47.7922 14.4076 47.4076 14.4076 46.9332V41.779Z" fill="#211D56"/>
<path d="M21.2798 41.779C21.2798 41.3046 20.8952 40.9199 20.4208 40.9199C19.9464 40.9199 19.5618 41.3046 19.5618 41.779V46.9332C19.5618 47.4076 19.9464 47.7922 20.4208 47.7922C20.8952 47.7922 21.2798 47.4076 21.2798 46.9332V41.779Z" fill="#211D56"/>
<path d="M28.1523 41.779C28.1523 41.3046 27.7676 40.9199 27.2932 40.9199C26.8188 40.9199 26.4342 41.3046 26.4342 41.779V46.9332C26.4342 47.4076 26.8188 47.7922 27.2932 47.7922C27.7676 47.7922 28.1523 47.4076 28.1523 46.9332V41.779Z" fill="#211D56"/>
<path d="M7.00263 49.5696C6.84408 49.5084 6.67126 49.4937 6.50432 49.5276C6.45189 49.5381 6.4003 49.552 6.34996 49.5696C6.29669 49.5956 6.24468 49.6241 6.19435 49.6556C6.14989 49.6875 6.1071 49.7219 6.06641 49.7588C5.99049 49.8422 5.92967 49.9383 5.88605 50.0423C5.83781 50.1442 5.81433 50.2567 5.81726 50.3695C5.81307 50.7193 6.02153 51.0364 6.34409 51.1719C6.66623 51.307 7.0387 51.2331 7.28534 50.9852C7.53197 50.7373 7.6037 50.3649 7.46654 50.0432C7.42501 49.9379 7.36377 49.8418 7.28618 49.7596C7.20061 49.6841 7.10497 49.6203 7.00263 49.5696Z" fill="#211D56"/>
<path d="M12.9386 49.759C12.8611 49.8412 12.7998 49.9372 12.7583 50.0425C12.6211 50.3621 12.6929 50.7329 12.9386 50.9787C13.0209 51.0563 13.1169 51.1176 13.2222 51.1591C13.5418 51.2963 13.9126 51.2249 14.1584 50.9787C14.4046 50.7329 14.4759 50.3621 14.3388 50.0425C14.2951 49.9385 14.2343 49.8424 14.1584 49.759C13.814 49.441 13.283 49.441 12.9386 49.759Z" fill="#211D56"/>
<path d="M20.8931 49.6563C20.8474 49.6231 20.7983 49.5946 20.7472 49.5703C20.6939 49.5518 20.639 49.5376 20.5832 49.5283C20.4196 49.4948 20.2497 49.5095 20.0945 49.5703C19.9917 49.621 19.8965 49.6848 19.811 49.7603C19.7334 49.8425 19.6721 49.9386 19.6306 50.0438C19.4934 50.3635 19.5652 50.7343 19.811 50.9801C19.8944 51.056 19.9905 51.1168 20.0945 51.1604C20.4141 51.2976 20.7849 51.2263 21.0307 50.9801C21.2769 50.7343 21.3482 50.3635 21.2111 50.0438C21.1675 49.9398 21.1066 49.8438 21.0307 49.7603C20.9884 49.7213 20.9426 49.6865 20.8931 49.6563Z" fill="#211D56"/>
<path d="M26.6834 49.759C26.6058 49.8412 26.5445 49.9372 26.503 50.0425C26.4548 50.1444 26.4313 50.256 26.4342 50.3688C26.4321 50.5974 26.5219 50.8172 26.6834 50.9787C26.7668 51.0546 26.8629 51.1155 26.9669 51.1591C27.2312 51.2723 27.5344 51.2447 27.7735 51.0853C28.0126 50.9259 28.1552 50.6562 28.1523 50.3688C28.1548 50.256 28.1313 50.1444 28.0835 50.0425C28.0399 49.9385 27.979 49.8424 27.9031 49.759C27.5587 49.441 27.0277 49.441 26.6834 49.759Z" fill="#211D56"/>
</svg>
