<svg width="52" height="48" viewBox="0 0 52 48" fill="none" xmlns="http://www.w3.org/2000/svg">
<path d="M48.8911 25.5809H48.0462V7.83833C48.0462 3.61388 44.6667 0.234375 40.4423 0.234375C36.7027 0.234375 34.0131 3.00725 33.7122 7.07012C31.7489 7.44121 30.3037 9.1321 30.3037 11.2178C30.3037 11.7248 30.6416 12.0627 31.1485 12.0627H37.9076C38.4145 12.0627 38.7525 11.7248 38.7525 11.2178C38.7525 9.15517 37.3392 7.47833 35.4092 7.08249C35.6617 4.39774 37.2741 1.92408 40.4423 1.92408C43.7373 1.92408 46.3564 4.54319 46.3564 7.83823V25.5808H20.9282C20.546 23.6322 18.8611 22.2013 16.7855 22.2013C15.9407 21.1874 14.7578 20.5115 13.406 20.5115C11.8008 20.5115 10.3644 21.4409 9.68851 22.7927C9.01257 22.4548 8.25217 22.2013 7.49177 22.2013C5.41623 22.2013 3.73128 23.6322 3.3491 25.5808H3.26732C1.83098 25.5808 0.732666 26.6791 0.732666 28.1155C0.732666 29.5518 1.83098 30.6501 3.26732 30.6501H4.28267L6.56237 39.6904C7.23831 42.3095 9.60395 44.1683 12.3076 44.1683H12.9836L11.8852 46.3651C11.6318 46.7875 11.8008 47.2945 12.2232 47.4634C12.3076 47.5478 12.4766 47.5478 12.5611 47.5478C12.899 47.5478 13.1525 47.3788 13.3215 47.1254L14.8 44.1683H38.2455L39.6819 47.0409C39.8509 47.3788 40.1043 47.5478 40.4423 47.5478C40.6113 47.5478 40.6957 47.5478 40.7802 47.3788C41.1181 47.2098 41.2871 46.7029 41.1181 46.2805L40.0598 44.1638C42.6755 44.0709 44.9376 42.244 45.596 39.7749L47.897 30.6501H48.8911C50.3274 30.6501 51.4257 29.5518 51.4257 28.1155C51.4257 26.6792 50.3274 25.5809 48.8911 25.5809ZM36.9782 10.373H32.1624C32.5003 9.35913 33.5141 8.68319 34.6126 8.68319C35.711 8.68319 36.6403 9.35913 36.9782 10.373ZM7.49177 23.8911C8.25217 23.8911 8.92811 24.229 9.5195 24.8205C9.68851 25.074 10.0264 25.1584 10.3643 25.074C10.7023 24.9895 10.8713 24.7361 10.9557 24.398C11.2092 23.1307 12.2231 22.2013 13.4904 22.2013C14.4198 22.2013 15.2646 22.6238 15.6871 23.4686C15.8561 23.8065 16.2785 23.9756 16.6165 23.8911C16.701 23.8911 16.7855 23.8911 16.87 23.8911C17.9683 23.8911 18.8977 24.567 19.2356 25.5809H5.12603C5.46405 24.567 6.39336 23.8911 7.49177 23.8911ZM44.0752 39.268C43.5683 41.1267 41.8785 42.4786 39.9353 42.4786H12.3921C10.4488 42.4786 8.7591 41.1268 8.25217 39.268L6.05544 30.6502H46.103L44.0752 39.268ZM48.8911 28.9604H47.2013H4.95712H3.26732C2.76039 28.9604 2.42247 28.6225 2.42247 28.1156C2.42247 27.6086 2.76039 27.2707 3.26732 27.2707H4.11217H20.1649H48.8911C49.398 27.2707 49.7359 27.6086 49.7359 28.1156C49.7359 28.6225 49.398 28.9604 48.8911 28.9604Z" fill="white"/>
</svg>
