<svg width="42" height="52" viewBox="0 0 42 52" fill="none" xmlns="http://www.w3.org/2000/svg">
<path d="M40.5909 10.6835H24.0733V8.14888C24.61 8.14888 25.0449 7.77066 25.0449 7.30403C25.0449 5.03126 23.9664 3.56116 22.1301 3.18096V1.38977C22.1301 0.92314 21.6951 0.544922 21.1585 0.544922C20.6219 0.544922 20.1869 0.92314 20.1869 1.38977V3.18096C18.3506 3.56116 17.2721 5.03126 17.2721 7.30403C17.2721 7.77066 17.707 8.14888 18.2436 8.14888V10.6835H1.72612C1.18949 10.6835 0.754538 11.0618 0.754538 11.5284C0.751463 12.7506 1.08462 13.9557 1.72612 15.0431C1.77121 15.2444 1.89896 15.4246 2.08558 15.5501C2.76852 16.5304 3.6317 17.4066 4.64097 18.1438C4.6363 18.1917 4.6363 18.2397 4.64097 18.2875V50.3931C4.64097 50.8598 5.07592 51.238 5.61255 51.238H36.7043C37.241 51.238 37.6759 50.8598 37.6759 50.3931V18.2875C37.6806 18.2397 37.6806 18.1917 37.6759 18.1438C38.6955 17.4087 39.5687 16.5323 40.2605 15.5501C40.4363 15.4205 40.5533 15.2409 40.5908 15.0431C41.2324 13.9557 41.5654 12.7506 41.5623 11.5284C41.5625 11.0619 41.1275 10.6835 40.5909 10.6835ZM21.1585 4.76938C21.5763 4.76938 22.752 4.76938 23.0337 6.45918H19.2832C19.565 4.76938 20.7407 4.76938 21.1585 4.76938ZM22.1301 8.14888V10.6835H20.1868V8.14888H22.1301ZM35.7328 49.5482H6.58424V47.8584H35.7328V49.5482ZM6.58424 46.1687V25.8915H20.1869V46.1687H6.58424ZM35.7328 46.1687H22.1301V25.8915H35.7328V46.1687ZM35.7328 24.2017H6.58424V19.3605C10.2278 21.3291 15.3288 22.5119 21.1585 22.5119C26.9882 22.5119 32.0892 21.329 35.7328 19.3605V24.2017ZM21.1585 20.8222C13.8519 20.8222 7.66273 18.786 4.64097 15.7528H37.6759C34.6543 18.786 28.4651 20.8222 21.1585 20.8222ZM38.9488 14.063H3.36822C3.07298 13.5286 2.87008 12.9592 2.76578 12.3732H39.5512C39.447 12.9593 39.244 13.5286 38.9488 14.063Z" fill="#211D56"/>
</svg>
