<svg width="39" height="40" viewBox="0 0 39 40" fill="none" xmlns="http://www.w3.org/2000/svg">
<path d="M36.531 20.5182C36.37 20.1889 36.37 19.8113 36.531 19.4821L38.0228 16.4301C38.8534 14.7308 38.1953 12.7055 36.5246 11.819L33.5238 10.2268C33.2 10.0551 32.9781 9.74946 32.9147 9.38861L32.3279 6.04261C32.0011 4.17965 30.2778 2.92779 28.4054 3.19271L25.0419 3.66848C24.6788 3.71973 24.3199 3.60302 24.0565 3.34825L21.615 0.986391C20.2556 -0.328758 18.1259 -0.328836 16.7665 0.986391L14.325 3.34849C14.0616 3.60333 13.7026 3.71981 13.3396 3.66872L9.97611 3.19294C8.10308 2.92786 6.38043 4.17989 6.05364 6.04285L5.46676 9.38869C5.40341 9.74962 5.18145 10.0552 4.85778 10.227L1.85702 11.8191C0.186249 12.7055 -0.471872 14.7311 0.358748 16.4304L1.85054 19.4822C2.01147 19.8115 2.01147 20.1892 1.85054 20.5184L0.35867 23.5702C-0.47195 25.2695 0.186171 27.2949 1.85694 28.1814L4.85771 29.7736C5.18145 29.9453 5.40341 30.2509 5.46676 30.6118L6.05364 33.9578C6.35113 35.6537 7.80534 36.8431 9.47666 36.8429C9.64127 36.8429 9.8083 36.8313 9.97619 36.8076L13.3397 36.3318C13.7024 36.2803 14.0616 36.3973 14.3251 36.652L16.7665 39.0139C17.4464 39.6716 18.3184 40.0003 19.1907 40.0002C20.0629 40.0002 20.9354 39.6714 21.615 39.0139L24.0565 36.652C24.3199 36.3973 24.679 36.2809 25.0419 36.3318L28.4054 36.8076C30.2786 37.0726 32.0011 35.8206 32.3279 33.9577L32.9148 30.6118C32.9782 30.2509 33.2001 29.9454 33.5238 29.7736L36.5246 28.1814C38.1953 27.295 38.8534 25.2695 38.0228 23.5702L36.531 20.5182ZM35.4432 26.1434L32.4425 27.7355C31.4858 28.2433 30.8296 29.1462 30.6425 30.2131L30.0556 33.559C29.9451 34.1893 29.3623 34.6127 28.7285 34.5232L25.365 34.0474C24.2924 33.8955 23.231 34.2407 22.4524 34.9938L20.0109 37.3556C19.5511 37.8004 18.8305 37.8004 18.3705 37.3556L15.929 34.9937C15.2711 34.3572 14.4109 34.0123 13.513 34.0123C13.3484 34.0123 13.1826 34.0239 13.0165 34.0474L9.65299 34.5231C9.01971 34.6127 8.43651 34.1892 8.32589 33.5589L7.73894 30.2129C7.55175 29.1461 6.89566 28.243 5.93887 27.7355L2.93811 26.1433C2.3728 25.8434 2.15014 25.1581 2.43116 24.5832L3.92302 21.5313C4.39865 20.5582 4.39865 19.4421 3.92302 18.4689L2.43116 15.417C2.15014 14.8421 2.3728 14.1569 2.93811 13.8569L5.93887 12.2648C6.89558 11.757 7.55175 10.8541 7.73886 9.7872L8.32573 6.44128C8.43636 5.81097 9.01901 5.38754 9.65283 5.47707L13.0163 5.95285C14.0886 6.10464 15.1504 5.75957 15.9289 5.00652L18.3704 2.64466C18.8303 2.19982 19.5508 2.19982 20.0108 2.64466L22.4523 5.00652C23.2308 5.75964 24.2924 6.10464 25.3648 5.95285L28.7283 5.47707C29.3617 5.38746 29.9449 5.81097 30.0554 6.44128L30.6423 9.78728C30.8295 10.8541 31.4856 11.7572 32.4424 12.2648L35.4431 13.8569C36.0085 14.1569 36.2311 14.8421 35.9501 15.417L34.4582 18.4689C33.9826 19.4419 33.9826 20.5582 34.4582 21.5312L35.9501 24.583C36.2312 25.1581 36.0085 25.8434 35.4432 26.1434Z" fill="#F43457"/>
<path d="M27.6192 11.5721C27.1688 11.1216 26.4383 11.1216 25.9878 11.5721L10.7622 26.7978C10.3117 27.2483 10.3117 27.9786 10.7622 28.4291C10.9874 28.6543 11.2827 28.767 11.5778 28.767C11.873 28.767 12.1683 28.6544 12.3935 28.4291L27.6191 13.2035C28.0697 12.753 28.0697 12.0226 27.6192 11.5721Z" fill="#F43457"/>
<path d="M14.5766 9.61829C12.2445 9.61829 10.3471 11.5157 10.3471 13.8479C10.3471 16.18 12.2445 18.0775 14.5766 18.0775C16.9088 18.0775 18.8062 16.18 18.8062 13.8479C18.8062 11.5157 16.9088 9.61829 14.5766 9.61829ZM14.5766 15.7704C13.5166 15.7704 12.6542 14.9079 12.6542 13.8478C12.6542 12.7877 13.5166 11.9253 14.5766 11.9253C15.6367 11.9253 16.4992 12.7877 16.4992 13.8478C16.4991 14.9079 15.6367 15.7704 14.5766 15.7704Z" fill="#F43457"/>
<path d="M23.8047 21.9224C21.4725 21.9224 19.5751 23.8198 19.5751 26.1519C19.5751 28.4841 21.4725 30.3815 23.8047 30.3815C26.1369 30.3815 28.0343 28.4841 28.0343 26.1519C28.0343 23.8198 26.1369 21.9224 23.8047 21.9224ZM23.8047 28.0744C22.7446 28.0744 21.8822 27.212 21.8822 26.1519C21.8822 25.0919 22.7446 24.2295 23.8047 24.2295C24.8648 24.2295 25.7272 25.0919 25.7272 26.1519C25.7272 27.212 24.8648 28.0744 23.8047 28.0744Z" fill="#F43457"/>
</svg>
