<svg width="40" height="38" viewBox="0 0 40 38" fill="none" xmlns="http://www.w3.org/2000/svg">
<path d="M38 20.333H37.3334V6.33301C37.3334 2.99965 34.6667 0.333008 31.3334 0.333008C28.3826 0.333008 26.2603 2.52098 26.0229 5.72684C24.4737 6.01965 23.3334 7.35387 23.3334 8.99965C23.3334 9.39965 23.6 9.66629 24 9.66629H29.3334C29.7334 9.66629 30 9.39965 30 8.99965C30 7.37207 28.8848 6.04894 27.362 5.7366C27.5612 3.61816 28.8335 1.66629 31.3334 1.66629C33.9334 1.66629 36 3.73293 36 6.33293V20.3329H15.9355C15.634 18.7954 14.3045 17.6663 12.6667 17.6663C12.0001 16.8663 11.0667 16.3329 10.0001 16.3329C8.73344 16.3329 7.60008 17.0663 7.06672 18.1329C6.53336 17.8663 5.93336 17.6663 5.33336 17.6663C3.69562 17.6663 2.36609 18.7954 2.06453 20.3329H2C0.866641 20.3329 0 21.1996 0 22.3329C0 23.4663 0.866641 24.3329 2 24.3329H2.80117L4.6 31.4663C5.13336 33.5329 7 34.9996 9.13336 34.9996H9.66672L8.80008 36.733C8.60008 37.0664 8.73344 37.4664 9.06672 37.5996C9.13336 37.6663 9.26672 37.6663 9.33336 37.6663C9.6 37.6663 9.8 37.5329 9.93336 37.3329L11.1 34.9996H29.6L30.7334 37.2663C30.8667 37.5329 31.0667 37.6663 31.3334 37.6663C31.4667 37.6663 31.5334 37.6663 31.6 37.5329C31.8666 37.3996 32 36.9996 31.8666 36.6663L31.0316 34.9961C33.0955 34.9228 34.8805 33.4812 35.4 31.5329L37.2156 24.3329H38C39.1334 24.3329 40 23.4663 40 22.3329C40 21.1996 39.1334 20.333 38 20.333ZM28.6 8.33301H24.8C25.0666 7.53301 25.8666 6.99965 26.7334 6.99965C27.6001 6.99965 28.3334 7.53301 28.6 8.33301ZM5.33336 18.9996C5.93336 18.9996 6.46672 19.2663 6.93336 19.733C7.06672 19.933 7.33336 19.9996 7.6 19.933C7.86664 19.8664 8 19.6664 8.06664 19.3996C8.26664 18.3996 9.06664 17.6663 10.0666 17.6663C10.8 17.6663 11.4666 17.9996 11.8 18.6663C11.9334 18.9329 12.2666 19.0663 12.5334 18.9996C12.6 18.9996 12.6667 18.9996 12.7334 18.9996C13.6 18.9996 14.3334 19.533 14.6 20.333H3.46664C3.73336 19.533 4.46664 18.9996 5.33336 18.9996ZM34.2 31.133C33.8 32.5996 32.4666 33.6664 30.9334 33.6664H9.2C7.66664 33.6664 6.33336 32.5997 5.93336 31.133L4.2 24.333H35.8L34.2 31.133ZM38 22.9996H36.6666H3.33336H2C1.6 22.9996 1.33336 22.733 1.33336 22.333C1.33336 21.933 1.6 21.6664 2 21.6664H2.66664H15.3333H38C38.4 21.6664 38.6666 21.933 38.6666 22.333C38.6666 22.733 38.4 22.9996 38 22.9996Z" fill="#211D56"/>
</svg>
