<svg width="40" height="40" viewBox="0 0 40 40" fill="none" xmlns="http://www.w3.org/2000/svg">
<path d="M39.8862 18.0014C39.6042 17.1998 38.8464 16.6639 37.9967 16.6652H14.6654C14.2972 16.6652 13.9988 16.9636 13.9988 17.3318V19.3316H12.6655V9.99912H13.3321C14.4365 9.99912 15.3319 9.10381 15.3319 7.9993C15.3319 6.89478 14.4366 5.99947 13.3321 5.99947H12.6655V3.99965H13.3321C13.7003 3.99965 13.9987 3.70124 13.9987 3.33307V0.666582C13.9987 0.298411 13.7003 0 13.3321 0H0.666582C0.298411 0 0 0.298411 0 0.666582V3.33299C0 3.70116 0.298411 3.99957 0.666582 3.99957H1.33316V19.9982C1.33316 20.3663 1.63158 20.6647 1.99975 20.6647H2.66633C2.87967 24.9577 5.13275 26.7442 7.13258 28.3241C9.66571 30.3239 12.0521 32.2104 10.6589 39.1965C10.5851 39.5571 10.8176 39.9094 11.1783 39.9832C11.2289 39.9936 11.2805 39.998 11.3321 39.9964H32.6636C33.0318 39.9963 33.3302 39.6978 33.3301 39.3297C33.3301 39.2101 33.2979 39.0927 33.2369 38.9898C31.3305 35.8167 31.3305 33.2369 31.3305 29.3306C35.4235 27.9974 38.3765 24.5777 38.6632 20.5514C39.7052 20.185 40.2526 19.0432 39.8862 18.0014ZM13.3322 7.33264C13.7004 7.33264 13.9988 7.63105 13.9988 7.99922C13.9988 8.36739 13.7004 8.6658 13.3322 8.6658H12.6656V7.33264H13.3322ZM1.33324 2.66641V1.33316H12.6656V2.66641H1.33324ZM2.66641 3.99965H11.3323V19.3317H2.66641V3.99965ZM12.1323 38.6632C13.3322 31.5172 10.6191 29.3307 7.9993 27.2776C6.04611 25.7511 4.21963 24.3045 3.99965 20.6648H13.3322C13.6322 24.6645 16.5719 27.9975 20.6249 29.3307C20.6249 33.0904 20.6249 35.6301 18.9051 38.6632H12.1323ZM31.5372 38.6632H20.4582C21.9381 35.7169 21.9981 33.1037 21.9981 29.704C22.8741 29.8955 23.7678 29.9938 24.6645 29.9974H27.3309C28.2275 29.9938 29.1213 29.8956 29.9973 29.704C29.9974 33.1037 30.0507 35.7169 31.5372 38.6632ZM27.331 28.6641H24.6646C19.4117 28.6641 15.0988 25.1311 14.7054 20.6648H37.2901C36.8968 25.1311 32.5838 28.6641 27.331 28.6641ZM37.9967 19.3316H15.332V17.9983H37.9967C38.3648 17.9983 38.6632 18.2967 38.6632 18.6649C38.6632 19.0331 38.3648 19.3316 37.9967 19.3316Z" fill="#1A1745"/>
</svg>
